<svg width="140" height="175" viewBox="0 0 140 175" fill="none" xmlns="http://www.w3.org/2000/svg">
<rect x="38.3604" width="180.078" height="46.3865" rx="23.1933" transform="rotate(55.7892 38.3604 0)" fill="#A97E4D"/>
<path d="M102.562 105.607C106.917 106.809 109.473 111.314 108.271 115.669L100.932 142.266C99.7298 146.621 95.2251 149.177 90.87 147.975V147.975C86.5149 146.773 83.9586 142.269 85.1604 137.913L92.5 111.317C93.7018 106.961 98.2066 104.405 102.562 105.607V105.607Z" fill="#C4AA8E"/>
<path d="M82.3993 74.8075C86.7544 76.0093 89.3106 80.5141 88.1088 84.8692L80.7692 111.466C79.5674 115.821 75.0626 118.377 70.7075 117.176C66.3524 115.974 63.7962 111.469 64.998 107.114L72.3376 80.517C73.5394 76.1619 78.0442 73.6057 82.3993 74.8075Z" fill="#C4AA8E"/>
<path d="M61.5349 46.3499C65.89 47.5517 68.4463 52.0565 67.2444 56.4116L59.9049 83.0085C58.703 87.3636 54.1983 89.9198 49.8432 88.718C45.4881 87.5162 42.9318 83.0114 44.1336 78.6563L51.4732 52.0594C52.675 47.7043 57.1798 45.1481 61.5349 46.3499Z" fill="#C4AA8E"/>
<path d="M41.7047 18.173C46.0598 19.3748 48.616 23.8796 47.4142 28.2347L40.0746 54.8315C38.8728 59.1866 34.368 61.7429 30.0129 60.5411C25.6578 59.3392 23.1015 54.8345 24.3034 50.4794L31.643 23.8825C32.8448 19.5274 37.3495 16.9712 41.7047 18.173Z" fill="#C4AA8E"/>
</svg>
