<svg width="312" height="125" viewBox="0 0 312 125" fill="none" xmlns="http://www.w3.org/2000/svg">
<path d="M92.0001 5.99998C104.5 3.99998 155 -6.00002 176.5 20C178.529 22.4532 179.823 24.7863 180.468 27C191.812 19.5 221.8 5.3 251 8.5C287.5 12.5 309 38.5 309.5 48.5C309.949 57.4711 310.397 103.464 258.5 96.2265C251.333 105.651 227.2 121.446 188 109.231C183.188 116.768 169.183 124.523 130.5 123C67 120.5 18 114 7 100.5C-1.8 89.7 4.59405 78.3333 8.89107 74C5.79028 71.3297 3.5629 68.1884 2.50014 64.5C-5.99986 35 79.5001 7.99998 92.0001 5.99998Z" fill="#E9ECF2"/>
<path d="M8.89107 74C5.79028 71.3297 3.5629 68.1884 2.50014 64.5C-5.99986 35 79.5001 7.99998 92.0001 5.99998C104.5 3.99998 155 -6.00002 176.5 20C178.529 22.4532 179.823 24.7863 180.468 27M8.89107 74C30.5905 92.6872 95.0628 88.3125 102.5 87C111 85.5 137 78 154 79C171 80 189 92 190 97.5C190.391 99.6495 191.087 104.395 188 109.231M8.89107 74C4.59405 78.3333 -1.8 89.7 7 100.5C18 114 67 120.5 130.5 123C169.183 124.523 183.188 116.768 188 109.231M95.0001 58.5C133.037 58.5 186.658 48.2476 180.468 27M180.468 27C191.812 19.5 221.8 5.3 251 8.5C287.5 12.5 309 38.5 309.5 48.5C309.949 57.4711 310.397 103.464 258.5 96.2265M221.5 70C248.714 77.5 247.5 51 247.5 48.5C247.5 46 236.5 27 216.5 31C196.5 35 166.5 68.5 238.5 91.5C245.908 93.8664 252.548 95.3965 258.5 96.2265M188 109.231C227.2 121.446 251.333 105.651 258.5 96.2265" stroke="black" stroke-width="3"/>
</svg>
