<svg width="187" height="201" viewBox="0 0 187 201" fill="none" xmlns="http://www.w3.org/2000/svg">
<path d="M38.9087 49.9576C49.4232 47.2784 59.2745 56.17 57.6832 66.9031V66.9031C56.0413 77.9783 43.3887 83.5307 34.1264 77.2407L31.1774 75.2382C26.7786 72.251 24.5272 66.9719 25.4162 61.7296V61.7296C26.3144 56.4335 30.2491 52.1642 35.4545 50.8378L38.9087 49.9576Z" fill="#DFAC7E"/>
<path d="M95.7638 163.375C93.6777 153.116 102.617 143.995 112.916 145.875V145.875C123.536 147.814 128.57 160.106 122.36 168.937L119.654 172.785C116.732 176.941 111.623 178.968 106.646 177.947V177.947C101.634 176.919 97.7205 172.999 96.7011 167.985L95.7638 163.375Z" fill="#DFAC7E"/>
<path d="M49.3586 56.6635C50.537 47.4291 59.961 41.6586 68.7217 44.8073V44.8073C77.6612 48.0203 81.1778 58.7962 75.8543 66.6638L62.1406 86.9312C59.8342 90.3399 55.4592 91.6731 51.6438 90.1299V90.1299C47.9701 88.644 45.7593 84.8688 46.2609 80.9378L49.3586 56.6635Z" fill="#C28A55"/>
<path d="M118.838 130.021C127.923 128.04 136.5 134.992 136.443 144.29V144.29C136.385 153.779 127.385 160.66 118.213 158.229L95.1426 152.114C91.1638 151.06 88.4579 147.375 88.6428 143.263V143.263C88.8211 139.299 91.6436 135.952 95.52 135.106L118.838 130.021Z" fill="#C28A55"/>
<path d="M71.6034 58.497C77.3501 45.8447 93.3163 41.7384 104.454 50.0482V50.0482C115.816 58.5254 116.179 75.4263 105.191 84.3831L76.0153 108.165C71.2616 112.039 64.4419 112.049 59.6769 108.189V108.189C55.0948 104.476 53.5989 98.137 56.0377 92.7676L71.6034 58.497Z" fill="#DFAC7E"/>
<path d="M115.624 97.3549C128.318 91.7002 142.989 99.22 145.81 112.827V112.827C148.688 126.708 137.747 139.594 123.583 139.007L85.9752 137.446C79.8476 137.191 74.7382 132.674 73.7341 126.624V126.624C72.7685 120.807 75.8546 115.071 81.2415 112.671L115.624 97.3549Z" fill="#DFAC7E"/>
<path d="M97.5894 70.8179C107.879 59.2713 126.156 60.0126 135.476 72.3546V72.3546C144.97 84.9269 140.319 103.062 125.946 109.513L81.038 129.671C74.8666 132.441 67.5972 130.406 63.7612 124.834V124.834C60.1008 119.518 60.5467 112.388 64.841 107.569L97.5894 70.8179Z" fill="#C28A55"/>
</svg>
