<svg width="175" height="190" viewBox="0 0 175 190" fill="none" xmlns="http://www.w3.org/2000/svg">
<path d="M49.3169 63.559L0 189.179H175L110.124 0L73.6542 114.207L49.3169 63.559Z" fill="#384C68"/>
<path d="M48.4518 75.3025L29.3918 133.755L49.3753 110.312L48.4518 75.3025Z" fill="#E1E1E1"/>
<path d="M48.4518 75.3025L29.3918 133.755L49.3753 110.312L48.4518 75.3025Z" fill="#E1E1E1"/>
<path d="M48.4518 75.3025L29.3918 133.755L49.3753 110.312L48.4518 75.3025Z" fill="#E1E1E1"/>
<path d="M48.4518 75.3025L29.3918 133.755L49.3753 110.312L48.4518 75.3025Z" fill="#E1E1E1"/>
<path d="M101.38 111.778L61.0135 157.77L91.8082 143.99L101.38 111.778Z" fill="#E1E1E1"/>
<path d="M101.38 111.778L61.0135 157.77L91.8082 143.99L101.38 111.778Z" fill="#E1E1E1"/>
<path d="M101.38 111.778L61.0135 157.77L91.8082 143.99L101.38 111.778Z" fill="#E1E1E1"/>
<path d="M101.38 111.778L61.0135 157.77L91.8082 143.99L101.38 111.778Z" fill="#E1E1E1"/>
<path d="M109.784 10.4456L82.9114 97.5098L112.405 62.1248L109.784 10.4456Z" fill="#E1E1E1"/>
<path d="M109.784 10.4456L82.9114 97.5098L112.405 62.1248L109.784 10.4456Z" fill="#E1E1E1"/>
<path d="M109.784 10.4456L82.9114 97.5098L112.405 62.1248L109.784 10.4456Z" fill="#E1E1E1"/>
<path d="M109.784 10.4456L82.9114 97.5098L112.405 62.1248L109.784 10.4456Z" fill="#E1E1E1"/>
</svg>
