<svg width="119" height="180" viewBox="0 0 119 180" fill="none" xmlns="http://www.w3.org/2000/svg">
<rect x="1.32812" y="2.5" width="42.1094" height="174.844" fill="#9C9185"/>
<path d="M7.96875 150.703C7.96875 142.764 14.4047 136.328 22.3438 136.328V136.328C30.2828 136.328 36.7188 142.764 36.7188 150.703V177.344H7.96875V150.703Z" fill="#75695D"/>
<path d="M7.96875 150.703C7.96875 142.764 14.4047 136.328 22.3438 136.328V136.328C30.2828 136.328 36.7188 142.764 36.7188 150.703V177.344H7.96875V150.703Z" fill="#75695D"/>
<path d="M26.0156 100.625C26.0156 98.5971 27.6596 96.9531 29.6875 96.9531V96.9531C31.7154 96.9531 33.3594 98.5971 33.3594 100.625V118.359H26.0156V100.625Z" fill="#C4C4C4"/>
<path d="M11.4062 100.625C11.4062 98.5971 13.0502 96.9531 15.0781 96.9531V96.9531C17.106 96.9531 18.75 98.5971 18.75 100.625V118.359H11.4062V100.625Z" fill="#C4C4C4"/>
<path d="M26.4062 102.891C26.4062 101.078 27.8753 99.6094 29.6875 99.6094V99.6094C31.4997 99.6094 32.9688 101.078 32.9688 102.891V118.359H26.4062V102.891Z" fill="#3F3F3F"/>
<path d="M11.7969 102.891C11.7969 101.078 13.2659 99.6094 15.0781 99.6094V99.6094C16.8903 99.6094 18.3594 101.078 18.3594 102.891V118.359H11.7969V102.891Z" fill="#3F3F3F"/>
<path d="M26.0156 166.484C26.0156 164.456 27.6596 162.812 29.6875 162.812V162.812C31.7154 162.812 33.3594 164.456 33.3594 166.484V176.484H26.0156V166.484Z" fill="#C4C4C4"/>
<path d="M11.4062 166.484C11.4062 164.456 13.0502 162.812 15.0781 162.812V162.812C17.106 162.812 18.75 164.456 18.75 166.484V176.484H11.4062V166.484Z" fill="#C4C4C4"/>
<path d="M26.4062 167.734C26.4062 165.922 27.8753 164.453 29.6875 164.453V164.453C31.4997 164.453 32.9688 165.922 32.9688 167.734V176.484H26.4062V167.734Z" fill="#3F3F3F"/>
<path d="M11.7969 167.734C11.7969 165.922 13.2659 164.453 15.0781 164.453V164.453C16.8903 164.453 18.3594 165.922 18.3594 167.734V176.484H11.7969V167.734Z" fill="#3F3F3F"/>
<path d="M26.0156 24.2969C26.0156 22.269 27.6596 20.625 29.6875 20.625V20.625C31.7154 20.625 33.3594 22.269 33.3594 24.2969V56.4062H26.0156V24.2969Z" fill="#C4C4C4"/>
<path d="M11.4062 24.2969C11.4062 22.269 13.0502 20.625 15.0781 20.625V20.625C17.106 20.625 18.75 22.269 18.75 24.2969V56.4062H11.4062V24.2969Z" fill="#C4C4C4"/>
<path d="M26.4062 26.0938C26.4062 24.2816 27.8753 22.8125 29.6875 22.8125V22.8125C31.4997 22.8125 32.9688 24.2816 32.9688 26.0938V56.4062H26.4062V26.0938Z" fill="#3F3F3F"/>
<path d="M11.7969 26.0938C11.7969 24.2816 13.2659 22.8125 15.0781 22.8125V22.8125C16.8903 22.8125 18.3594 24.2816 18.3594 26.0938V56.4062H11.7969V26.0938Z" fill="#3F3F3F"/>
<circle cx="22.3828" cy="93.1641" r="2.28906" fill="#C4C4C4" stroke="#9C9185" stroke-width="3"/>
<rect x="74.7656" y="2.5" width="42.1094" height="174.844" fill="#9C9185"/>
<path d="M44.7656 150.703C44.7656 142.764 51.2015 136.328 59.1406 136.328V136.328C67.0797 136.328 73.5156 142.764 73.5156 150.703V177.344H44.7656V150.703Z" fill="#818181"/>
<path d="M81.4844 150.703C81.4844 142.764 87.9203 136.328 95.8594 136.328V136.328C103.798 136.328 110.234 142.764 110.234 150.703V177.344H81.4844V150.703Z" fill="#75695D"/>
<path d="M99.4531 100.625C99.4531 98.5971 101.097 96.9531 103.125 96.9531V96.9531C105.153 96.9531 106.797 98.5971 106.797 100.625V118.359H99.4531V100.625Z" fill="#C4C4C4"/>
<path d="M84.8438 100.625C84.8438 98.5971 86.4877 96.9531 88.5156 96.9531V96.9531C90.5435 96.9531 92.1875 98.5971 92.1875 100.625V118.359H84.8438V100.625Z" fill="#C4C4C4"/>
<path d="M99.8438 102.891C99.8438 101.078 101.313 99.6094 103.125 99.6094V99.6094C104.937 99.6094 106.406 101.078 106.406 102.891V118.359H99.8438V102.891Z" fill="#3F3F3F"/>
<path d="M85.2344 102.891C85.2344 101.078 86.7034 99.6094 88.5156 99.6094V99.6094C90.3278 99.6094 91.7969 101.078 91.7969 102.891V118.359H85.2344V102.891Z" fill="#3F3F3F"/>
<path d="M99.4531 166.484C99.4531 164.456 101.097 162.812 103.125 162.812V162.812C105.153 162.812 106.797 164.456 106.797 166.484V176.484H99.4531V166.484Z" fill="#C4C4C4"/>
<path d="M84.8438 166.484C84.8438 164.456 86.4877 162.812 88.5156 162.812V162.812C90.5435 162.812 92.1875 164.456 92.1875 166.484V176.484H84.8438V166.484Z" fill="#C4C4C4"/>
<path d="M99.8438 167.734C99.8438 165.922 101.313 164.453 103.125 164.453V164.453C104.937 164.453 106.406 165.922 106.406 167.734V176.484H99.8438V167.734Z" fill="#3F3F3F"/>
<path d="M85.2344 167.734C85.2344 165.922 86.7034 164.453 88.5156 164.453V164.453C90.3278 164.453 91.7969 165.922 91.7969 167.734V176.484H85.2344V167.734Z" fill="#3F3F3F"/>
<path d="M99.4531 24.2969C99.4531 22.269 101.097 20.625 103.125 20.625V20.625C105.153 20.625 106.797 22.269 106.797 24.2969V56.4062H99.4531V24.2969Z" fill="#C4C4C4"/>
<path d="M84.8438 24.2969C84.8438 22.269 86.4877 20.625 88.5156 20.625V20.625C90.5435 20.625 92.1875 22.269 92.1875 24.2969V56.4062H84.8438V24.2969Z" fill="#C4C4C4"/>
<path d="M99.8438 26.0938C99.8438 24.2816 101.313 22.8125 103.125 22.8125V22.8125C104.937 22.8125 106.406 24.2816 106.406 26.0938V56.4062H99.8438V26.0938Z" fill="#3F3F3F"/>
<path d="M85.2344 26.0938C85.2344 24.2816 86.7034 22.8125 88.5156 22.8125V22.8125C90.3278 22.8125 91.7969 24.2816 91.7969 26.0938V56.4062H85.2344V26.0938Z" fill="#3F3F3F"/>
<circle cx="95.8203" cy="93.1641" r="2.28906" fill="#C4C4C4" stroke="#969696" stroke-width="3"/>
<rect x="43.4375" y="60" width="31.3281" height="117.344" fill="#9C9185"/>
<path d="M44.7656 149.844C44.7656 141.905 51.2015 135.469 59.1406 135.469V135.469C67.0797 135.469 73.5156 141.905 73.5156 149.844V176.484H44.7656V149.844Z" fill="#75695D"/>
<path d="M62.7344 166.484C62.7344 164.456 64.3783 162.812 66.4062 162.812V162.812C68.4342 162.812 70.0781 164.456 70.0781 166.484V176.484H62.7344V166.484Z" fill="#C4C4C4"/>
<path d="M48.125 166.484C48.125 164.456 49.769 162.812 51.7969 162.812V162.812C53.8248 162.812 55.4688 164.456 55.4688 166.484V176.484H48.125V166.484Z" fill="#C4C4C4"/>
<path d="M63.125 167.734C63.125 165.922 64.5941 164.453 66.4062 164.453V164.453C68.2184 164.453 69.6875 165.922 69.6875 167.734V176.484H63.125V167.734Z" fill="#3F3F3F"/>
<path d="M48.5156 167.734C48.5156 165.922 49.9847 164.453 51.7969 164.453V164.453C53.6091 164.453 55.0781 165.922 55.0781 167.734V176.484H48.5156V167.734Z" fill="#3F3F3F"/>
<circle cx="59.1016" cy="103.711" r="11.9922" fill="#3F3F3F"/>
<line x1="47.1094" y1="98.75" x2="71.0938" y2="98.75" stroke="#BABABA" stroke-width="10"/>
<line x1="46.2235" y1="102.024" x2="69.3906" y2="95.8166" stroke="#BABABA" stroke-width="10"/>
<line x1="69.3915" y1="111.683" x2="46.2243" y2="105.476" stroke="#BABABA" stroke-width="10"/>
<line x1="64.0455" y1="115.765" x2="47.086" y2="98.8058" stroke="#BABABA" stroke-width="10"/>
<line x1="60.7675" y1="116.636" x2="48.7753" y2="95.8645" stroke="#BABABA" stroke-width="10"/>
<line x1="57.3754" y1="116.628" x2="51.1678" y2="93.4605" stroke="#BABABA" stroke-width="10"/>
<line x1="66.9873" y1="114.076" x2="46.2162" y2="102.084" stroke="#BABABA" stroke-width="10"/>
<line x1="71.0937" y1="108.75" x2="47.1094" y2="108.75" stroke="#BABABA" stroke-width="10"/>
<line x1="71.9796" y1="105.476" x2="48.8125" y2="111.683" stroke="#BABABA" stroke-width="10"/>
<line x1="71.9873" y1="102.084" x2="51.2162" y2="114.076" stroke="#BABABA" stroke-width="10"/>
<line x1="69.4278" y1="95.8644" x2="57.4356" y2="116.636" stroke="#BABABA" stroke-width="10"/>
<line x1="67.0347" y1="93.4605" x2="60.8271" y2="116.628" stroke="#BABABA" stroke-width="10"/>
<line x1="71.1166" y1="98.8058" x2="54.1571" y2="115.765" stroke="#BABABA" stroke-width="10"/>
<line x1="64.1016" y1="91.7578" x2="64.1016" y2="115.742" stroke="#BABABA" stroke-width="10"/>
<line x1="54.1016" y1="115.742" x2="54.1016" y2="91.7578" stroke="#BABABA" stroke-width="10"/>
<line x1="60.8277" y1="90.8723" x2="67.0353" y2="114.039" stroke="#BABABA" stroke-width="10"/>
<line x1="51.1684" y1="114.039" x2="57.376" y2="90.8723" stroke="#BABABA" stroke-width="10"/>
<line x1="57.4356" y1="90.8644" x2="69.4278" y2="111.636" stroke="#BABABA" stroke-width="10"/>
<line x1="48.7753" y1="111.636" x2="60.7675" y2="90.8645" stroke="#BABABA" stroke-width="10"/>
<line x1="51.2158" y1="93.4238" x2="71.9869" y2="105.416" stroke="#BABABA" stroke-width="10"/>
<line x1="48.8117" y1="95.8166" x2="71.9788" y2="102.024" stroke="#BABABA" stroke-width="10"/>
<line x1="46.2158" y1="105.416" x2="66.9869" y2="93.4238" stroke="#BABABA" stroke-width="10"/>
<line x1="46.2235" y1="102.024" x2="69.3906" y2="95.8166" stroke="#BABABA" stroke-width="10"/>
<line x1="47.0865" y1="108.694" x2="64.046" y2="91.7347" stroke="#BABABA" stroke-width="10"/>
<line x1="54.1576" y1="91.7347" x2="71.1171" y2="108.694" stroke="#BABABA" stroke-width="10"/>
<circle cx="59.1016" cy="103.711" r="4.33594" fill="#3F3F3F"/>
<path d="M60 31.7969L61.8944 55.6445H58.1056L60 31.7969Z" fill="#454545"/>
<rect y="118" width="118" height="6" rx="3" fill="#C5AA8E"/>
<rect x="0.234375" y="176.484" width="117.578" height="3.51562" rx="1.75781" fill="#C5AA8E"/>
<rect x="0.3125" y="81.5625" width="117.578" height="5" rx="2.5" fill="#C5AA8E"/>
<rect x="0.3125" y="55.5469" width="117.578" height="5" rx="2.5" fill="#C5AA8E"/>
<rect width="44.7656" height="5" rx="2.5" fill="#C5AA8E"/>
<rect x="73.4375" width="44.7656" height="5" rx="2.5" fill="#C5AA8E"/>
</svg>
