<svg width="126" height="200" viewBox="0 0 126 200" fill="none" xmlns="http://www.w3.org/2000/svg">
<path d="M40.0933 131.13C34.7735 146.56 11.1478 181.191 0 196.578V200H29.477C30.6825 189.876 38.67 169.598 60.9761 169.473C83.2821 169.349 88.9883 189.773 89.0531 200H125.88C114.278 184.393 89.4186 148.769 82.7921 131.13C74.509 109.08 69.4536 77.7367 69.0648 74.3535C68.6759 70.9703 65.1371 25.7048 65.0593 24.6549C64.9815 23.6049 66.6926 21.6216 66.6926 21.0383V15.7885H56.154C56.1151 16.981 56.0607 19.7006 56.154 21.0383C56.2707 22.7105 57.2817 22.6716 57.6706 24.6549C58.0595 26.6382 54.4429 69.6092 52.6152 83.4921C50.7875 97.3751 46.7431 111.841 40.0933 131.13Z" fill="#9C9185"/>
<path d="M66.8091 125.141H55.6094L51.4873 146.49H70.6979L66.8091 125.141Z" fill="#EFF8FF"/>
<rect x="60.665" width="1.55551" height="13.9996" rx="0.777756" fill="#9C9185"/>
<rect x="30.7988" y="144.818" width="61.4427" height="4.58876" rx="2.29438" fill="#C4AA8E"/>
<path d="M43.4766 106.864C43.4766 105.919 44.2426 105.153 45.1876 105.153H77.309C78.254 105.153 79.02 105.919 79.02 106.864V106.864C79.02 107.809 78.254 108.575 77.309 108.575H45.1876C44.2426 108.575 43.4766 107.809 43.4766 106.864V106.864Z" fill="#C4AA8E"/>
<path d="M56.1543 17.1884C56.1543 15.1266 57.8257 13.4552 59.8875 13.4552H62.9208C64.9826 13.4552 66.654 15.1266 66.654 17.1884V17.1884C66.654 19.2502 64.9826 20.9217 62.9208 20.9217H59.8875C57.8257 20.9217 56.1543 19.2502 56.1543 17.1884V17.1884Z" fill="#9C9185"/>
<path d="M110.831 187.984L114.67 194.633H106.991L110.831 187.984Z" fill="#454545"/>
<path d="M110.831 187.984L114.67 194.633H106.991L110.831 187.984Z" fill="#454545"/>
<path d="M98.2311 187.984L102.07 194.633H94.3918L98.2311 187.984Z" fill="#454545"/>
<path d="M98.2311 187.984L102.07 194.633H94.3918L98.2311 187.984Z" fill="#454545"/>
<path d="M108.593 187.934L104.753 194.584L100.914 187.934L108.593 187.934Z" fill="#454545"/>
<path d="M108.593 187.934L104.753 194.584L100.914 187.934L108.593 187.934Z" fill="#454545"/>
<path d="M22.4772 187.984L26.3164 194.633H18.6379L22.4772 187.984Z" fill="#454545"/>
<path d="M22.4772 187.984L26.3164 194.633H18.6379L22.4772 187.984Z" fill="#454545"/>
<path d="M9.87755 187.984L13.7168 194.633H6.03827L9.87755 187.984Z" fill="#454545"/>
<path d="M9.87755 187.984L13.7168 194.633H6.03827L9.87755 187.984Z" fill="#454545"/>
<path d="M20.2391 187.934L16.3998 194.584L12.5605 187.934L20.2391 187.934Z" fill="#454545"/>
<path d="M20.2391 187.934L16.3998 194.584L12.5605 187.934L20.2391 187.934Z" fill="#454545"/>
<path d="M61.8316 52.8875L65.6709 59.5373H57.9924L61.8316 52.8875Z" fill="#454545"/>
<path d="M61.8316 52.8875L65.6709 59.5373H57.9924L61.8316 52.8875Z" fill="#454545"/>
<path d="M52.9832 124.547L49.1439 131.197L45.3047 124.547L52.9832 124.547Z" fill="#454545"/>
<path d="M52.9832 124.547L49.1439 131.197L45.3047 124.547L52.9832 124.547Z" fill="#454545"/>
<path d="M61.8316 116.275L65.6709 122.924H57.9924L61.8316 116.275Z" fill="#454545"/>
<path d="M61.8316 116.275L65.6709 122.924H57.9924L61.8316 116.275Z" fill="#454545"/>
<path d="M59.5936 115.214L55.7543 121.864L51.915 115.214L59.5936 115.214Z" fill="#454545"/>
<path d="M59.5936 115.214L55.7543 121.864L51.915 115.214L59.5936 115.214Z" fill="#454545"/>
<path d="M60.9762 67.8203L64.8155 74.4701H57.1369L60.9762 67.8203Z" fill="#454545"/>
<path d="M60.9762 67.8203L64.8155 74.4701H57.1369L60.9762 67.8203Z" fill="#454545"/>
<path d="M57.5543 96.8306L61.3936 103.48H53.715L57.5543 96.8306Z" fill="#454545"/>
<path d="M57.5543 96.8306L61.3936 103.48H53.715L57.5543 96.8306Z" fill="#454545"/>
<path d="M77.7938 124.547L73.9545 131.197L70.1152 124.547L77.7938 124.547Z" fill="#454545"/>
<path d="M77.7938 124.547L73.9545 131.197L70.1152 124.547L77.7938 124.547Z" fill="#454545"/>
<path d="M78.942 135.952L82.7813 142.602H75.1027L78.942 135.952Z" fill="#454545"/>
<path d="M78.942 135.952L82.7813 142.602H75.1027L78.942 135.952Z" fill="#454545"/>
<path d="M77.4041 133.413L73.5648 140.063L69.7256 133.413L77.4041 133.413Z" fill="#454545"/>
<path d="M77.4041 133.413L73.5648 140.063L69.7256 133.413L77.4041 133.413Z" fill="#454545"/>
<path d="M65.3316 84.7754L69.1709 91.4252H61.4924L65.3316 84.7754Z" fill="#454545"/>
<path d="M65.3316 84.7754L69.1709 91.4252H61.4924L65.3316 84.7754Z" fill="#454545"/>
<path d="M71.8826 115.214L68.0433 121.864L64.2041 115.214L71.8826 115.214Z" fill="#454545"/>
<path d="M71.8826 115.214L68.0433 121.864L64.2041 115.214L71.8826 115.214Z" fill="#454545"/>
<path d="M41.61 135.952L45.4492 142.602H37.7707L41.61 135.952Z" fill="#454545"/>
<path d="M41.61 135.952L45.4492 142.602H37.7707L41.61 135.952Z" fill="#454545"/>
<path d="M50.8826 133.725L47.0433 140.374L43.2041 133.725L50.8826 133.725Z" fill="#454545"/>
<path d="M50.8826 133.725L47.0433 140.374L43.2041 133.725L50.8826 133.725Z" fill="#454545"/>
<path d="M87.2643 152.518L91.1035 159.168H83.425L87.2643 152.518Z" fill="#454545"/>
<path d="M87.2643 152.518L91.1035 159.168H83.425L87.2643 152.518Z" fill="#454545"/>
<path d="M74.6647 152.518L78.5039 159.168H70.8254L74.6647 152.518Z" fill="#454545"/>
<path d="M74.6647 152.518L78.5039 159.168H70.8254L74.6647 152.518Z" fill="#454545"/>
<path d="M85.0262 152.468L81.1869 159.118L77.3476 152.468L85.0262 152.468Z" fill="#454545"/>
<path d="M85.0262 152.468L81.1869 159.118L77.3476 152.468L85.0262 152.468Z" fill="#454545"/>
<path d="M74.5094 152.518L78.3487 159.168H70.6701L74.5094 152.518Z" fill="#454545"/>
<path d="M74.5094 152.518L78.3487 159.168H70.6701L74.5094 152.518Z" fill="#454545"/>
<path d="M61.9098 152.518L65.749 159.168H58.0705L61.9098 152.518Z" fill="#454545"/>
<path d="M61.9098 152.518L65.749 159.168H58.0705L61.9098 152.518Z" fill="#454545"/>
<path d="M72.2713 152.468L68.432 159.118L64.5927 152.468L72.2713 152.468Z" fill="#454545"/>
<path d="M72.2713 152.468L68.432 159.118L64.5927 152.468L72.2713 152.468Z" fill="#454545"/>
<path d="M49.3102 152.518L53.1494 159.168H45.4709L49.3102 152.518Z" fill="#454545"/>
<path d="M49.3102 152.518L53.1494 159.168H45.4709L49.3102 152.518Z" fill="#454545"/>
<path d="M59.6717 152.468L55.8324 159.118L51.9931 152.468L59.6717 152.468Z" fill="#454545"/>
<path d="M59.6717 152.468L55.8324 159.118L51.9931 152.468L59.6717 152.468Z" fill="#454545"/>
<path d="M36.7106 152.518L40.5498 159.168H32.8713L36.7106 152.518Z" fill="#454545"/>
<path d="M36.7106 152.518L40.5498 159.168H32.8713L36.7106 152.518Z" fill="#454545"/>
<path d="M47.0721 152.468L43.2328 159.118L39.3935 152.468L47.0721 152.468Z" fill="#454545"/>
<path d="M47.0721 152.468L43.2328 159.118L39.3935 152.468L47.0721 152.468Z" fill="#454545"/>
<path d="M80.6529 161.384L84.4922 168.034H76.8137L80.6529 161.384Z" fill="#454545"/>
<path d="M80.6529 161.384L84.4922 168.034H76.8137L80.6529 161.384Z" fill="#454545"/>
<path d="M91.0154 161.335L87.1762 167.985L83.3369 161.335L91.0154 161.335Z" fill="#454545"/>
<path d="M91.0154 161.335L87.1762 167.985L83.3369 161.335L91.0154 161.335Z" fill="#454545"/>
<path d="M68.0533 161.384L71.8926 168.034H64.2141L68.0533 161.384Z" fill="#454545"/>
<path d="M68.0533 161.384L71.8926 168.034H64.2141L68.0533 161.384Z" fill="#454545"/>
<path d="M78.4158 161.335L74.5766 167.985L70.7373 161.335L78.4158 161.335Z" fill="#454545"/>
<path d="M78.4158 161.335L74.5766 167.985L70.7373 161.335L78.4158 161.335Z" fill="#454545"/>
<path d="M93.2525 161.384L97.0918 168.034H89.4133L93.2525 161.384Z" fill="#454545"/>
<path d="M93.2525 161.384L97.0918 168.034H89.4133L93.2525 161.384Z" fill="#454545"/>
<path d="M67.8981 161.384L71.7373 168.034H64.0588L67.8981 161.384Z" fill="#454545"/>
<path d="M67.8981 161.384L71.7373 168.034H64.0588L67.8981 161.384Z" fill="#454545"/>
<path d="M55.2984 161.384L59.1377 168.034H51.4592L55.2984 161.384Z" fill="#454545"/>
<path d="M55.2984 161.384L59.1377 168.034H51.4592L55.2984 161.384Z" fill="#454545"/>
<path d="M65.66 161.335L61.8207 167.985L57.9814 161.335L65.66 161.335Z" fill="#454545"/>
<path d="M65.66 161.335L61.8207 167.985L57.9814 161.335L65.66 161.335Z" fill="#454545"/>
<path d="M42.6988 161.384L46.5381 168.034H38.8596L42.6988 161.384Z" fill="#454545"/>
<path d="M42.6988 161.384L46.5381 168.034H38.8596L42.6988 161.384Z" fill="#454545"/>
<path d="M53.0604 161.335L49.2211 167.985L45.3818 161.335L53.0604 161.335Z" fill="#454545"/>
<path d="M53.0604 161.335L49.2211 167.985L45.3818 161.335L53.0604 161.335Z" fill="#454545"/>
<path d="M30.0992 161.384L33.9385 168.034H26.26L30.0992 161.384Z" fill="#454545"/>
<path d="M30.0992 161.384L33.9385 168.034H26.26L30.0992 161.384Z" fill="#454545"/>
<path d="M40.4607 161.335L36.6215 167.985L32.7822 161.335L40.4607 161.335Z" fill="#454545"/>
<path d="M40.4607 161.335L36.6215 167.985L32.7822 161.335L40.4607 161.335Z" fill="#454545"/>
<path d="M99.2418 170.251L103.081 176.901H95.4025L99.2418 170.251Z" fill="#454545"/>
<path d="M99.2418 170.251L103.081 176.901H95.4025L99.2418 170.251Z" fill="#454545"/>
<path d="M86.6422 170.251L90.4815 176.901H82.8029L86.6422 170.251Z" fill="#454545"/>
<path d="M86.6422 170.251L90.4815 176.901H82.8029L86.6422 170.251Z" fill="#454545"/>
<path d="M97.0037 170.201L93.1644 176.851L89.3252 170.201L97.0037 170.201Z" fill="#454545"/>
<path d="M97.0037 170.201L93.1644 176.851L89.3252 170.201L97.0037 170.201Z" fill="#454545"/>
<path d="M36.0875 170.251L39.9268 176.901H32.2482L36.0875 170.251Z" fill="#454545"/>
<path d="M36.0875 170.251L39.9268 176.901H32.2482L36.0875 170.251Z" fill="#454545"/>
<path d="M23.4879 170.251L27.3272 176.901H19.6486L23.4879 170.251Z" fill="#454545"/>
<path d="M23.4879 170.251L27.3272 176.901H19.6486L23.4879 170.251Z" fill="#454545"/>
<path d="M33.8504 170.201L30.0111 176.851L26.1718 170.201L33.8504 170.201Z" fill="#454545"/>
<path d="M33.8504 170.201L30.0111 176.851L26.1718 170.201L33.8504 170.201Z" fill="#454545"/>
<path d="M104.841 179.117L108.681 185.767H101.002L104.841 179.117Z" fill="#454545"/>
<path d="M104.841 179.117L108.681 185.767H101.002L104.841 179.117Z" fill="#454545"/>
<path d="M92.2418 179.117L96.0811 185.767H88.4025L92.2418 179.117Z" fill="#454545"/>
<path d="M92.2418 179.117L96.0811 185.767H88.4025L92.2418 179.117Z" fill="#454545"/>
<path d="M102.603 179.068L98.7641 185.718L94.9248 179.068L102.603 179.068Z" fill="#454545"/>
<path d="M102.603 179.068L98.7641 185.718L94.9248 179.068L102.603 179.068Z" fill="#454545"/>
<path d="M29.0885 179.117L32.9278 185.767H25.2492L29.0885 179.117Z" fill="#454545"/>
<path d="M29.0885 179.117L32.9278 185.767H25.2492L29.0885 179.117Z" fill="#454545"/>
<path d="M16.4889 179.117L20.3281 185.767H12.6496L16.4889 179.117Z" fill="#454545"/>
<path d="M16.4889 179.117L20.3281 185.767H12.6496L16.4889 179.117Z" fill="#454545"/>
<path d="M26.8504 179.068L23.0111 185.718L19.1718 179.068L26.8504 179.068Z" fill="#454545"/>
<path d="M26.8504 179.068L23.0111 185.718L19.1718 179.068L26.8504 179.068Z" fill="#454545"/>
</svg>
