<svg width="175" height="175" viewBox="0 0 175 175" fill="none" xmlns="http://www.w3.org/2000/svg">
<path fill-rule="evenodd" clip-rule="evenodd" d="M87.5 175C135.825 175 175 135.825 175 87.5C175 39.1751 135.825 0 87.5 0C39.1751 0 0 39.1751 0 87.5C0 135.825 39.1751 175 87.5 175ZM87.4722 14.4195C94.3778 14.4195 99.9758 20.0175 99.9758 26.9231V29.4087C107.119 30.938 113.786 33.7507 119.724 37.5938L121.485 35.8324C126.368 30.9495 134.285 30.9495 139.168 35.8324C144.051 40.7154 144.051 48.6322 139.168 53.5152L137.406 55.2765C141.249 61.2144 144.062 67.8813 145.591 75.0242H148.077C154.983 75.0242 160.581 80.6223 160.581 87.5278C160.581 94.4333 154.983 100.031 148.077 100.031H145.591C144.062 107.174 141.249 113.841 137.406 119.779L139.168 121.54C144.051 126.423 144.051 134.34 139.168 139.223C134.285 144.106 126.368 144.106 121.485 139.223L119.724 137.462C113.786 141.305 107.119 144.118 99.9758 145.647V148.133C99.9758 155.038 94.3778 160.636 87.4722 160.636C80.5667 160.636 74.9687 155.038 74.9687 148.133V145.647C67.8258 144.118 61.1588 141.305 55.2209 137.462L53.4596 139.223C48.5766 144.106 40.6598 144.106 35.7769 139.223C30.8939 134.34 30.8939 126.423 35.7769 121.54L37.5382 119.779C33.6951 113.841 30.8824 107.174 29.3531 100.031H26.8675C19.962 100.031 14.3639 94.4333 14.3639 87.5278C14.3639 80.6222 19.962 75.0242 26.8675 75.0242H29.3531C30.8824 67.8813 33.6951 61.2144 37.5382 55.2765L35.7769 53.5151C30.8939 48.6322 30.8939 40.7154 35.7769 35.8324C40.6598 30.9495 48.5766 30.9495 53.4596 35.8324L55.221 37.5938C61.1589 33.7507 67.8258 30.938 74.9687 29.4087V26.9231C74.9687 20.0175 80.5667 14.4195 87.4722 14.4195Z" fill="#9C9185"/>
<path fill-rule="evenodd" clip-rule="evenodd" d="M87.4997 168.212C132.075 168.212 168.211 132.076 168.211 87.5C168.211 42.9242 132.075 6.78839 87.4997 6.78839C42.9239 6.78839 6.78809 42.9242 6.78809 87.5C6.78809 132.076 42.9239 168.212 87.4997 168.212ZM87.4997 15.9468C94.2583 15.9468 99.7373 21.4258 99.7373 28.1844V30.6172C106.728 32.114 113.253 34.8669 119.065 38.6282L120.789 36.9043C125.568 32.1252 133.316 32.1252 138.095 36.9043C142.874 41.6833 142.874 49.4318 138.095 54.2108L136.372 55.9347C140.133 61.7463 142.886 68.2714 144.382 75.2624H146.815C153.574 75.2624 159.053 80.7413 159.053 87.5C159.053 94.2586 153.574 99.7375 146.815 99.7375H144.382C142.886 106.728 140.133 113.254 136.372 119.065L138.095 120.789C142.874 125.568 142.874 133.317 138.095 138.096C133.316 142.875 125.568 142.875 120.789 138.096L119.065 136.372C113.253 140.133 106.728 142.886 99.7373 144.383V146.815C99.7373 153.574 94.2583 159.053 87.4997 159.053C80.7411 159.053 75.2621 153.574 75.2621 146.815V144.383C68.2712 142.886 61.7461 140.133 55.9345 136.372L54.2106 138.096C49.4315 142.875 41.6831 142.875 36.904 138.096C32.125 133.317 32.125 125.568 36.904 120.789L38.6279 119.065C34.8666 113.254 32.1137 106.728 30.6169 99.7375H28.1842C21.4256 99.7375 15.9466 94.2586 15.9466 87.4999C15.9466 80.7413 21.4256 75.2623 28.1842 75.2623H30.6169C32.1137 68.2714 34.8666 61.7463 38.6279 55.9347L36.904 54.2108C32.125 49.4317 32.125 41.6833 36.904 36.9043C41.6831 32.1252 49.4315 32.1252 54.2106 36.9043L55.9345 38.6282C61.7461 34.8668 68.2712 32.114 75.2621 30.6172V28.1844C75.2621 21.4258 80.7411 15.9468 87.4997 15.9468Z" fill="#F1D2AD"/>
</svg>
