<svg width="175" height="49" viewBox="0 0 175 49" fill="none" xmlns="http://www.w3.org/2000/svg">
<path fill-rule="evenodd" clip-rule="evenodd" d="M0.000429388 24.3182C0.000143262 24.367 0 24.4158 0 24.4647C0 37.9762 10.9533 48.9294 24.4647 48.9294H150.451C163.962 48.9294 174.915 37.9762 174.915 24.4647C174.915 24.4158 174.915 24.367 174.915 24.3182H0.000429388ZM0.670718 18.7514H174.245C171.671 7.99578 161.995 0 150.45 0H24.4647C12.9205 0 3.24388 7.99578 0.670718 18.7514Z" fill="#217DFB"/>
<path fill-rule="evenodd" clip-rule="evenodd" d="M0.585938 18.7514H174.16C171.587 7.99578 161.91 0 150.366 0H24.3799C12.8358 0 3.1591 7.99578 0.585938 18.7514Z" fill="#88A6CF"/>
<rect x="144.737" y="7.32477" width="14.6495" height="20.5093" rx="7.32476" fill="#454545"/>
<rect x="118.954" y="7.32477" width="14.6495" height="20.5093" rx="7.32476" fill="#454545"/>
<rect x="93.1709" y="7.32477" width="14.6495" height="20.5093" rx="7.32476" fill="#454545"/>
<rect x="67.3877" y="7.32477" width="14.6495" height="20.5093" rx="7.32476" fill="#454545"/>
<rect x="41.6045" y="7.32477" width="14.6495" height="20.5093" rx="7.32476" fill="#454545"/>
<rect x="15.8213" y="7.32477" width="14.6495" height="20.5093" rx="7.32476" fill="#454545"/>
<rect x="32.5215" y="21.9742" width="7.03177" height="23.7322" rx="3.51588" fill="#FF7D8E"/>
<rect x="147.081" y="31.057" width="9.96167" height="10.2547" rx="4.98084" fill="#FF7D8E"/>
</svg>
