<svg width="43" height="175" viewBox="0 0 43 175" fill="none" xmlns="http://www.w3.org/2000/svg">
<path d="M0 60.0995C0 52.515 6.14719 46.3664 13.7301 46.3664H28.7316C36.3145 46.3664 42.4617 52.515 42.4617 60.0995V171.058C42.4617 173.235 40.6972 175 38.5207 175H4.14447C1.85554 175 0 173.144 0 170.855V60.0995Z" fill="#BF919F"/>
<path d="M14.9633 10.1517H28.0196L33.588 49.8506H9.39497L14.9633 10.1517Z" fill="#BF919F"/>
<path d="M14.7266 0H28.4606L30.8153 31.8978H11.6973L14.7266 0Z" fill="#E0BF97"/>
<rect x="2.26758" y="78.0698" width="37.927" height="56.3751" rx="18.9635" fill="#E5E6DF"/>
<rect x="10.1006" y="82.3469" width="22.2615" height="3.60718" rx="1.80359" fill="#767676"/>
<rect x="15.459" y="124.087" width="22.313" height="3.55565" rx="1.77783" fill="#767676"/>
<rect x="4.3291" y="90.8495" width="22.313" height="3.55565" rx="1.77783" fill="#767676"/>
</svg>
